<svg width="32" height="32" viewBox="0 0 32 32" fill="none" xmlns="http://www.w3.org/2000/svg">
<path d="M15.2995 6C11.5225 6 8.5622 8.68812 8.5622 12.0908C8.5622 14.6768 10.3316 16.5483 12.4072 16.5483C14.619 16.5483 16.1502 14.881 16.1502 12.9074C16.1502 12.7033 16.1162 12.397 16.0481 12.2269C17.7154 13.1116 19.4168 14.5067 20.5056 16.0039C19.3487 18.0795 17.5113 20.2913 14.8231 20.2913C12.7475 20.2913 10.9441 18.692 10.6378 16.6164C10.6038 16.2761 10.2976 16.0379 9.9573 16.0379H4.85328C4.44496 16.0379 4.13872 16.3782 4.17275 16.7525C4.54704 22.3329 9.03858 26.7564 14.8231 26.7564C21.2202 26.7564 25.0312 22.1287 27.9235 16.174C28.0255 15.9699 28.0255 15.7657 27.9235 15.5615C27.0047 13.9282 22.4111 6 15.2995 6Z" fill="#2684FF"/>
<path d="M27.9915 15.97H20.5056C19.3487 18.0796 17.4772 20.2914 14.755 20.2914C12.6794 20.2914 10.842 18.6921 10.5357 16.5825C10.5017 16.2422 10.1955 16.004 9.85518 16.004H4.68312C4.2748 16.004 3.96856 16.3443 4.00258 16.7526C4.37688 22.367 8.90244 26.8245 14.721 26.8245C21.1861 26.8245 25.0311 22.1628 27.9234 16.1741C27.9915 16.1061 27.9915 16.038 27.9915 15.97Z" fill="url(#paint0_linear)"/>
<defs>
<linearGradient id="paint0_linear" x1="4.03484" y1="16.4445" x2="19.4923" y2="21.089" gradientUnits="userSpaceOnUse">
<stop offset="0.176" stop-color="#0052CC"/>
<stop offset="1" stop-color="#2684FF"/>
</linearGradient>
</defs>
</svg>
