<svg width="32" height="32" viewBox="0 0 32 32" fill="none" xmlns="http://www.w3.org/2000/svg">
<path d="M16.0228 24.9999C19.1275 24.9999 21.6443 22.4383 21.6443 19.2785C21.6443 16.1187 19.1275 13.5571 16.0228 13.5571C12.9182 13.5571 10.4014 16.1187 10.4014 19.2785C10.4014 22.4383 12.9182 24.9999 16.0228 24.9999Z" fill="url(#paint0_linear)"/>
<path d="M4.13651 12.6611L7.15042 16.3145C7.38747 16.5902 7.79385 16.6247 8.06476 16.3834C12.9751 11.9028 19.0368 11.9028 23.9132 16.3834C24.1841 16.6247 24.5905 16.5902 24.8276 16.3145L27.8415 12.6611C28.0785 12.3854 28.0447 11.9718 27.7738 11.7305C20.6623 5.42317 11.2819 5.42317 4.17038 11.7305C3.96719 11.9718 3.93332 12.3854 4.13651 12.6611Z" fill="#2684FF"/>
<defs>
<linearGradient id="paint0_linear" x1="16.0229" y1="23.0395" x2="16.0229" y2="12.8883" gradientUnits="userSpaceOnUse">
<stop stop-color="#2684FF"/>
<stop offset="0.824" stop-color="#0052CC"/>
</linearGradient>
</defs>
</svg>
